<?xml version="1.0" encoding="UTF-8" standalone="no"?>
<!-- Created with Inkscape (http://www.inkscape.org/) -->

<svg
   viewBox="0 0 52.916666 52.916666"
   version="1.1"
   id="svg1"
   inkscape:version="1.4.4 (dcaf3e7d9e, 2026-05-05)"
   sodipodi:docname="ai-eye-joined.svg"
   xmlns:inkscape="http://www.inkscape.org/namespaces/inkscape"
   xmlns:sodipodi="http://sodipodi.sourceforge.net/DTD/sodipodi-0.dtd"
   xmlns="http://www.w3.org/2000/svg"
   xmlns:svg="http://www.w3.org/2000/svg">
  <sodipodi:namedview
     id="namedview1"
     pagecolor="#ffffff"
     bordercolor="#000000"
     borderopacity="0.25"
     inkscape:showpageshadow="2"
     inkscape:pageopacity="0.0"
     inkscape:pagecheckerboard="0"
     inkscape:deskcolor="#d1d1d1"
     inkscape:document-units="px"
     inkscape:zoom="3.0898438"
     inkscape:cx="84.955751"
     inkscape:cy="94.179518"
     inkscape:window-width="1920"
     inkscape:window-height="1011"
     inkscape:window-x="0"
     inkscape:window-y="0"
     inkscape:window-maximized="1"
     inkscape:current-layer="layer1" />
  <defs
     id="defs1" />
  <g
     inkscape:label="Layer 1"
     inkscape:groupmode="layer"
     id="layer1">
    <path
       id="path2"
       style="fill:#000000;stroke-width:0.757553;stroke-linecap:square"
       d="M 26.458333 7.9374999 A 26.458332 18.520834 0 0 0 0 26.458333 A 26.458332 18.520834 0 0 0 5.4777018 37.692272 L 5.4642659 37.729996 A 26.458332 18.520834 0 0 0 5.7712239 37.982694 A 26.458332 18.520834 0 0 0 6.3572346 38.464835 A 26.458332 18.520834 0 0 0 8.0325845 39.716955 A 26.458332 18.520834 0 0 0 8.715747 40.175842 A 26.458332 18.520834 0 0 0 11.236523 41.607279 A 26.458332 18.520834 0 0 0 26.458333 44.979166 A 26.458332 18.520834 0 0 0 40.325187 42.199491 L 40.399601 42.199491 A 26.458332 18.520834 0 0 0 42.224296 41.31169 A 26.458332 18.520834 0 0 0 42.61652 41.120487 A 26.458332 18.520834 0 0 0 44.79003 39.813073 L 44.79003 39.786201 A 26.458332 18.520834 0 0 0 52.916666 26.458333 A 26.458332 18.520834 0 0 0 44.79003 13.152169 L 44.79003 13.103593 A 26.458332 18.520834 0 0 0 43.836083 12.522233 A 26.458332 18.520834 0 0 0 43.127083 12.090218 A 26.458332 18.520834 0 0 0 40.692089 10.845849 A 26.458332 18.520834 0 0 0 26.458333 7.9374999 z M 26.458333 11.1125 A 23.283333 15.345833 0 0 1 38.141857 13.184208 L 38.141857 39.732458 A 23.283333 15.345833 0 0 1 33.7814 41.025402 L 23.277132 11.25616 A 23.283333 15.345833 0 0 1 26.458333 11.1125 z M 13.980025 13.502535 L 6.6073485 34.477998 A 23.283333 15.345833 0 0 1 3.175 26.458333 A 23.283333 15.345833 0 0 1 13.980025 13.502535 z M 19.055167 15.585612 C 19.169544 16.100309 19.355408 16.80087 19.612756 17.687292 C 19.884402 18.573715 21.071067 22.397949 23.172745 29.160494 L 15.002185 29.160494 C 17.232538 21.94044 18.583362 17.415645 19.055167 15.585612 z M 44.79003 16.997412 A 23.283333 15.345833 0 0 1 49.741666 26.458333 A 23.283333 15.345833 0 0 1 44.79003 35.919254 L 44.79003 16.997412 z M 13.329419 34.736381 L 24.759729 34.736381 L 26.911535 41.801066 A 23.283333 15.345833 0 0 1 26.458333 41.804166 A 23.283333 15.345833 0 0 1 12.161531 38.570255 L 13.329419 34.736381 z " />
  </g>
</svg>
